<?xml version="1.0" encoding="UTF-8"?>
<svg id="Layer_2" data-name="Layer 2" xmlns="http://www.w3.org/2000/svg" viewBox="0 0 219.07 220.21">
  <defs>
    <style>
      .cls-1 {
        fill: none;
      }

      .cls-2 {
        fill: #fff;
      }
    </style>
  </defs>
  <g id="Layer_1-2" data-name="Layer 1">
    <g>
      <path class="cls-1" d="M205.94,35.16c2.98-3.44,4.78-7.56,5.11-11.79.35-4.5-1.05-8.56-3.92-11.43-2.87-2.87-6.93-4.26-11.43-3.92-4.22.32-8.35,2.13-11.79,5.11l22.03,22.03Z"/>
      <polygon class="cls-1" points="105.68 93.44 98.55 120.41 125.52 113.28 105.68 93.44"/>
      <rect class="cls-1" x="107.21" y="48.63" width="96.1" height="30.25" transform="translate(.39 128.46) rotate(-45)"/>
      <path class="cls-2" d="M182.27,204.45c0,4.28-3.48,7.76-7.76,7.76H15.76c-4.28,0-7.76-3.48-7.76-7.76V45.7c0-4.28,3.48-7.76,7.76-7.76h79.37v-8H15.76c-8.69,0-15.76,7.07-15.76,15.76v158.75c0,8.69,7.07,15.76,15.76,15.76h158.75c8.69,0,15.76-7.07,15.76-15.76v-79.38h-8v79.38Z"/>
      <path class="cls-2" d="M212.77,6.31c-4.54-4.54-10.82-6.75-17.68-6.23-6.63.51-13.03,3.54-18.03,8.54-.46.46-.77,1.01-.96,1.6l-74.42,74.42c-1.27.4-2.31,1.41-2.68,2.78l-9.94,37.6c-.36,1.38.03,2.84,1.04,3.85.76.76,1.78,1.17,2.83,1.17.34,0,.68-.04,1.02-.13l37.6-9.94c1.32-.35,2.31-1.33,2.74-2.52l74.41-74.41c.64-.18,1.26-.5,1.76-1.01,5-5,8.03-11.4,8.54-18.03.53-6.86-1.69-13.14-6.23-17.68ZM195.7,8.03c4.5-.34,8.56,1.05,11.43,3.92,2.87,2.87,4.26,6.93,3.92,11.43-.32,4.22-2.13,8.35-5.11,11.79l-22.03-22.03c3.44-2.98,7.56-4.79,11.79-5.11ZM105.68,93.44l19.84,19.84-26.97,7.13,7.13-26.97ZM131.98,108.43l-21.39-21.39L178.54,19.08l21.39,21.39-67.95,67.95Z"/>
    </g>
  </g>
</svg>